# xmcd
#
# Track frame offsets:
#	150
#	16425
#	29222
#	58027
#	75439
#	87021
#	102452
#	116114
#	122480
#	137460
#	155623
#	170442
#	195612
#
# Disc length: 2646 seconds
#
# Revision: 1
# Processed by: cddbd v1.5.1PL2 Copyright (c) Steve Scherf et al.
# Submitted via: audiograbber 1.83.01
#
DISCID=a80a540d
DTITLE=The Perpetrators - Self Titled
DYEAR=2003
DGENRE=
TTITLE0=12,000 Miles
TTITLE1=One more day
TTITLE2=Crappy job
TTITLE3=Look at you
TTITLE4=Hollywood
TTITLE5=1/4 to 5
TTITLE6=Stay Strong
TTITLE7=Toe Stub
TTITLE8=Garmonbozia
TTITLE9=Six Pack
TTITLE10=Malt Liquor
TTITLE11=Hate Song
TTITLE12=Untitled
EXTD=Winnipeg Manitoba Band
EXTT0=
EXTT1=
EXTT2=
EXTT3=
EXTT4=
EXTT5=
EXTT6=
EXTT7=
EXTT8=
EXTT9=
EXTT10=
EXTT11=
EXTT12=
PLAYORDER=
